<?xml version="1.0" encoding="utf-8"?>
<!-- Generator: Adobe Illustrator 16.0.0, SVG Export Plug-In . SVG Version: 6.00 Build 0)  -->
<!DOCTYPE svg PUBLIC "-//W3C//DTD SVG 1.1//EN" "http://www.w3.org/Graphics/SVG/1.1/DTD/svg11.dtd">
<svg version="1.1" id="레이어_1" xmlns="http://www.w3.org/2000/svg" xmlns:xlink="http://www.w3.org/1999/xlink" x="0px"
	 y="0px" width="2000px" height="500px" viewBox="0 0 2000 500" enable-background="new 0 0 2000 500" xml:space="preserve">
<g>
	<path d="M146.48,293.62h9.295v-70.516h-9.295v-20.674h59.778c26.604,0,39.265,9.937,39.265,27.405
		c0,13.462-3.686,20.032-15.706,24.84c11.539,3.206,21.155,11.699,21.155,27.245c0,22.597-12.661,32.533-43.591,32.533h-60.9V293.62
		z M188.95,247.625h9.776c8.494,0,10.898-4.648,10.898-12.341c0-7.372-4.487-11.699-10.578-11.699H188.95V247.625z M201.771,293.62
		c6.731,0,12.981-5.128,12.981-13.782c0-8.174-4.648-14.104-13.462-14.104h-12.34v27.886H201.771z"/>
	<path d="M254.974,257.882c0-34.617,23.078-58.496,56.252-58.496c39.265,0,57.535,23.559,57.535,59.617
		c0,36.22-20.193,58.336-56.413,58.336C278.853,317.339,254.974,297.947,254.974,257.882z M328.695,259.003
		c0-19.392-5.289-34.937-17.629-34.937c-9.776-0.161-16.507,13.942-16.507,33.815c0,20.994,7.533,34.296,17.79,34.296
		C322.444,292.178,328.695,278.876,328.695,259.003z"/>
	<path d="M375.165,293.14h9.937v-69.555h-9.937v-21.154h48.88c38.784,0,60.9,23.879,60.9,54.489
		c0,36.54-22.116,57.534-61.541,57.534h-48.239V293.14z M424.045,293.14c16.988-0.321,24.04-16.187,24.04-36.22
		c0-17.148-7.052-33.335-24.04-33.335h-6.09v69.555H424.045z"/>
	<path d="M546.32,252.913c0.641-3.205,4.167-9.937,5.93-13.782l8.814-16.187h-8.814v-20.514h43.111v20.514h-8.654l-29.649,52.085
		v18.591h8.975v20.834h-51.284V293.62h9.135v-18.911l-31.091-51.765h-7.853v-20.514h54.81v20.514h-8.334l9.295,16.987
		c0.961,3.045,4.327,10.257,4.968,12.981H546.32z"/>
	<path d="M688.466,202.431v21.154h-8.494v69.555h20.674v-20.354h26.924v41.668h-89.748V293.14h8.815v-69.555h-8.815v-21.154H688.466
		z"/>
	<path d="M733.975,257.882c0-34.617,23.078-58.496,56.252-58.496c39.265,0,57.535,23.559,57.535,59.617
		c0,36.22-20.193,58.336-56.413,58.336C757.854,317.339,733.975,297.947,733.975,257.882z M807.696,259.003
		c0-19.392-5.289-34.937-17.629-34.937c-9.776-0.161-16.507,13.942-16.507,33.815c0,20.994,7.533,34.296,17.79,34.296
		C801.445,292.178,807.696,278.876,807.696,259.003z"/>
	<path d="M918.271,278.556c0.32-4.487,2.564-12.341,5.77-20.354l14.584-34.938h-8.494v-20.834h45.515v20.834h-7.853l-38.463,91.189
		h-29.488l-42.47-91.189h-8.814v-20.834h58.977v20.834h-8.654l13.622,35.899c2.564,7.853,4.647,14.904,4.968,19.392H918.271z"/>
	<path d="M1074.683,202.431v35.418h-27.726v-14.264h-25.642v22.116h30.45v21.315h-30.45v26.123h25.642v-14.904h27.726v36.219
		h-96.639V293.14h10.097v-69.555h-10.097v-21.154H1074.683z"/>
	<path d="M1218.594,202.431v35.418h-28.366v-14.264h-24.2v27.886h30.45v21.315h-30.45v20.354h16.347v21.314h-59.617V293.14h9.937
		v-69.555h-9.937v-21.154H1218.594z"/>
	<path d="M1278.205,202.431v21.154h-9.937v69.555h9.937v21.314h-53.207V293.14h10.097v-69.555h-10.097v-21.154H1278.205z"/>
	<path d="M1392.148,244.099h-23.559v-20.514h-13.462v69.555h13.302v21.314h-59.618V293.14h13.142v-69.555h-13.782v20.514h-23.559
		v-41.668h107.536V244.099z"/>
	<path d="M1510.737,223.104v91.35h-34.456l-40.867-61.06v40.386h12.34v20.674h-49.2V293.78h9.455v-70.676h-9.295v-20.674h45.995
		l39.265,58.816v-38.143h-10.897v-20.674h48.239v20.674H1510.737z"/>
	<path d="M1625.961,202.431v35.418h-27.726v-14.264h-25.643v22.116h30.45v21.315h-30.45v26.123h25.643v-14.904h27.726v36.219
		h-96.639V293.14h10.097v-69.555h-10.097v-21.154H1625.961z"/>
	<path d="M1633.97,274.068h29.809c0,13.462,13.462,15.705,20.193,16.026c5.609,0,13.622-1.282,13.622-8.014
		c0-12.5-61.541-7.212-61.541-48.079c0-23.719,22.437-34.456,38.143-34.456c13.462,0,27.085,4.327,33.495,16.347l1.603-13.462
		h27.565v40.226h-29.008c0-11.859-9.295-18.59-20.514-18.59c-4.647,0-11.058,2.885-11.058,8.493
		c0,16.508,63.464,12.661,63.464,50.323c0,25.001-23.398,33.976-42.47,33.976c-16.187,0-27.405-7.532-33.495-14.744l-1.763,12.34
		h-28.046V274.068z"/>
	<path d="M1747.751,274.068h29.809c0,13.462,13.462,15.705,20.193,16.026c5.609,0,13.622-1.282,13.622-8.014
		c0-12.5-61.541-7.212-61.541-48.079c0-23.719,22.437-34.456,38.143-34.456c13.462,0,27.085,4.327,33.495,16.347l1.603-13.462
		h27.565v40.226h-29.008c0-11.859-9.295-18.59-20.514-18.59c-4.647,0-11.058,2.885-11.058,8.493
		c0,16.508,63.464,12.661,63.464,50.323c0,25.001-23.398,33.976-42.47,33.976c-16.187,0-27.405-7.532-33.495-14.744l-1.763,12.34
		h-28.046V274.068z"/>
</g>
</svg>
