<?xml version="1.0" encoding="utf-8"?>
<!-- Generator: Adobe Illustrator 16.0.0, SVG Export Plug-In . SVG Version: 6.00 Build 0)  -->
<!DOCTYPE svg PUBLIC "-//W3C//DTD SVG 1.1//EN" "http://www.w3.org/Graphics/SVG/1.1/DTD/svg11.dtd">
<svg version="1.1" id="Layer_1" xmlns="http://www.w3.org/2000/svg" xmlns:xlink="http://www.w3.org/1999/xlink" x="0px" y="0px"
	 width="500px" height="500px" viewBox="0 0 500 500" enable-background="new 0 0 500 500" xml:space="preserve">
<g>
	<path d="M126.427,128.726c0-1.06,0-2.694,0-4.9s-0.023-4.524-0.066-6.954c-0.045-2.428-0.066-4.768-0.066-7.02
		c0-2.251,0-3.951,0-5.099c-0.089-5.915-0.132-11.743-0.132-17.483c0-5.739-0.023-11.478-0.066-17.219
		c-0.045-5.739-0.112-11.589-0.199-17.549c-0.089-5.96-0.178-12.074-0.265-18.345c-0.089-2.206,0.397-3.686,1.457-4.437
		c1.06-0.749,2.736-1.08,5.033-0.993c5.915,0.178,11.368,0.817,16.357,1.92c4.988,1.105,9.292,2.782,12.914,5.033
		c3.62,2.251,6.467,5.079,8.543,8.477c2.074,3.4,3.156,7.396,3.245,11.987c0.176,4.946-0.927,9.404-3.311,13.377
		c-2.384,3.974-5.52,6.888-9.404,8.742c4.769,2.297,8.432,5.695,10.994,10.199c2.56,4.503,3.752,9.801,3.576,15.894
		c-0.089,4.768-1.258,9.007-3.51,12.715c-2.251,3.708-5.254,6.821-9.006,9.337c-3.754,2.517-8.146,4.392-13.179,5.629
		c-5.033,1.235-10.42,1.722-16.159,1.457c-2.208-0.089-3.886-0.331-5.033-0.729C127,132.368,126.427,131.021,126.427,128.726z
		 M160.997,56.275c0-2.649-0.596-4.967-1.788-6.954c-1.192-1.986-2.827-3.642-4.9-4.967c-2.076-1.324-4.549-2.361-7.417-3.112
		c-2.87-0.75-6.026-1.302-9.47-1.656c0,5.563,0.021,11.171,0.066,16.821c0.043,5.652,0.11,11.258,0.199,16.821h6.225
		c2.471,0,4.768-0.463,6.887-1.391c2.12-0.927,3.928-2.163,5.431-3.708c1.5-1.544,2.67-3.332,3.51-5.364
		C160.577,60.735,160.997,58.573,160.997,56.275z M137.818,83.561c0.087,4.503,0.153,8.874,0.199,13.112
		c0.043,4.238,0.066,8.566,0.066,12.98v13.643h3.708c2.736,0,5.364-0.418,7.881-1.258c2.517-0.838,4.768-2.097,6.755-3.775
		c1.987-1.676,3.576-3.686,4.768-6.026c1.192-2.339,1.832-5.054,1.92-8.146c0.087-2.384-0.178-4.789-0.794-7.219
		c-0.619-2.428-1.656-4.636-3.113-6.623c-1.457-1.987-3.4-3.597-5.828-4.834c-2.43-1.235-5.41-1.854-8.94-1.854H137.818z"/>
	<path d="M188.413,81.838c-0.089-3.973,0-8.079,0.265-12.318c0.265-4.238,0.794-8.365,1.589-12.384
		c0.795-4.017,1.92-7.815,3.377-11.391c1.457-3.576,3.312-6.732,5.563-9.47c2.251-2.736,4.967-4.901,8.146-6.49
		s6.931-2.428,11.258-2.517c9.888-0.176,17.239,4.019,22.053,12.583c4.812,8.565,7.129,21.281,6.954,38.146
		c-0.089,10.066-0.751,18.675-1.987,25.828c-1.238,7.152-3.158,13.003-5.762,17.55c-2.605,4.546-5.894,7.858-9.868,9.934
		c-3.973,2.074-8.742,3.113-14.305,3.113c-5.563,0-10.089-1.701-13.576-5.1c-3.489-3.4-6.226-7.682-8.212-12.848
		c-1.987-5.166-3.377-10.838-4.172-17.02C188.942,93.275,188.5,87.401,188.413,81.838z M219.273,38.262
		c-3.002-0.087-5.563,0.665-7.682,2.256c-2.12,1.592-3.864,3.713-5.232,6.366c-1.37,2.653-2.43,5.639-3.179,8.955
		c-0.751,3.317-1.325,6.589-1.722,9.818c-0.397,3.229-0.619,6.233-0.662,9.019c-0.045,2.786-0.066,4.975-0.066,6.567
		c0.087,6.368,0.484,12.183,1.192,17.444c0.706,5.263,1.722,9.751,3.046,13.464c1.324,3.715,2.957,6.589,4.9,8.624
		c1.941,2.034,4.193,3.05,6.755,3.05c2.649,0,5.12-0.706,7.417-2.121c2.295-1.416,4.282-3.87,5.96-7.364
		c1.676-3.493,3.001-8.135,3.974-13.928c0.971-5.792,1.5-13.067,1.589-21.823c0-6.014-0.311-11.474-0.927-16.382
		c-0.619-4.909-1.589-9.108-2.914-12.602c-1.325-3.493-3.003-6.213-5.033-8.158C224.659,39.502,222.188,38.44,219.273,38.262z"/>
	<path d="M266.159,29.189c1.59-0.397,3.444-0.55,5.563-0.463c7.329,0.354,13.819,1.612,19.471,3.775
		c5.65,2.165,10.397,5.343,14.238,9.536c3.841,4.195,6.732,9.45,8.676,15.762c1.941,6.314,2.868,13.754,2.781,22.318
		c-0.178,17.131-3.863,30.221-11.06,39.271c-7.198,9.05-17.506,13.663-30.927,13.841c-3.003,0.087-5.298-0.265-6.888-1.06
		c-1.59-0.794-2.517-2.781-2.781-5.96c-0.178-3.62-0.311-8.146-0.397-13.576c-0.089-5.431-0.179-10.75-0.265-15.96
		c0-2.56,0-5.077,0-7.55c0-2.471-0.046-4.987-0.133-7.549l-0.397-19.073c-0.089-4.149-0.198-8.233-0.331-12.252
		c-0.133-4.017-0.199-8.146-0.199-12.384v-4.239C263.687,31.066,264.57,29.587,266.159,29.189z M276.093,81.11
		c0.087,6.788,0.177,13.688,0.266,20.695c0.087,7.01,0.219,13.907,0.397,20.695c0.44,0.089,0.815,0.133,1.125,0.133
		c0.309,0,0.64,0,0.994,0c3.884,0,7.438-1.167,10.662-3.504c3.222-2.336,5.98-5.488,8.278-9.456
		c2.295-3.965,4.083-8.549,5.363-13.752c1.279-5.201,1.921-10.667,1.921-16.399c0-5.728-0.685-11.062-2.053-16
		c-1.37-4.938-3.334-9.213-5.895-12.827c-2.562-3.613-5.695-6.391-9.403-8.332c-3.709-1.939-7.86-2.821-12.45-2.645
		c0,4.586,0.043,9.127,0.132,13.622c0.087,4.495,0.22,9.036,0.397,13.62c0.087,2.293,0.133,4.63,0.133,7.01
		S276.004,78.73,276.093,81.11z"/>
	<path d="M371.191,32.037c1.06-2.295,2.825-3.443,5.298-3.443c0.882,0,1.766,0.221,2.649,0.662c0.882,0.443,1.61,1.016,2.186,1.722
		c0.573,0.708,0.927,1.569,1.06,2.583c0.132,1.016-0.066,2.053-0.597,3.112c-3.797,7.595-7.661,15.298-11.589,23.113
		c-3.93,7.814-8.146,15.96-12.649,24.437c0,4.151-0.022,8.013-0.065,11.589c-0.046,3.576-0.066,7.175-0.066,10.794
		c-0.089,3.622-0.133,7.264-0.133,10.927c0,3.665,0,7.616,0,11.854c0,1.676-0.575,3.046-1.722,4.106
		c-1.148,1.06-2.43,1.676-3.841,1.854c-1.503,0.087-2.914-0.354-4.238-1.324c-1.325-0.973-1.987-2.43-1.987-4.371
		c0-4.238,0-8.189,0-11.854c0-3.663,0.044-7.351,0.133-11.06c0-1.412,0-3.067,0-4.967c0-1.898,0.021-3.885,0.066-5.96
		c0.043-2.074,0.065-4.106,0.065-6.093s0-3.775,0-5.364c-0.707-1.146-1.479-2.45-2.317-3.907c-0.84-1.457-1.612-2.848-2.318-4.172
		c-1.678-2.914-3.423-6.07-5.231-9.47c-1.811-3.398-3.576-6.842-5.298-10.331c-1.722-3.487-3.4-6.954-5.033-10.397
		c-1.635-3.444-3.069-6.666-4.305-9.669c-0.708-2.295-0.397-4.193,0.927-5.695c1.325-1.5,2.869-2.252,4.636-2.252
		c1.061,0,2.054,0.244,2.98,0.729c0.928,0.486,1.61,1.215,2.053,2.186c0.971,2.297,2.252,5.122,3.842,8.477
		c1.589,3.356,3.311,6.887,5.165,10.596s3.752,7.44,5.695,11.192c1.941,3.754,3.752,7.086,5.431,10
		c3.709-6.887,7.086-13.62,10.133-20.198C365.165,44.864,368.188,38.395,371.191,32.037z"/>
	<path d="M130.199,191.375c0.087-1.765,0.772-3.09,2.053-3.974c1.279-0.881,2.626-1.324,4.04-1.324c1.235,0,2.583,0.397,4.04,1.192
		c1.457,0.795,2.186,2.032,2.186,3.708c0,2.297-0.023,4.437-0.066,6.424c-0.045,1.987-0.089,3.864-0.132,5.629
		c-0.045,1.767-0.089,3.533-0.132,5.298c-0.046,1.768-0.066,3.576-0.066,5.431c0,2.562,0.021,5.166,0.066,7.814
		c0.043,2.649,0.066,5.298,0.066,7.947c0,8.212,0.021,16.159,0.066,23.841c0.043,7.683-0.112,15.762-0.464,24.238
		c0,0.09-0.045,0.288-0.132,0.597c-0.089,0.311-0.132,0.642-0.132,0.993c0,0.354,0.132,0.685,0.397,0.993
		c0.265,0.311,0.749,0.464,1.457,0.464c3.795,0.089,7.218,0.089,10.265,0c3.046-0.087,5.938-0.133,8.675-0.133
		c0.706,0,1.61,0,2.715,0c1.103,0,2.252-0.021,3.444-0.066c1.192-0.043,2.338-0.065,3.444-0.065c1.103,0,1.964,0,2.583,0
		c1.589,0,2.869,0.575,3.841,1.722c0.97,1.148,1.457,2.384,1.457,3.708c0,1.236-0.443,2.318-1.324,3.245
		c-0.884,0.928-2.119,1.435-3.708,1.523c-2.119,0.087-4.88,0.153-8.278,0.199c-3.4,0.043-6.91,0.087-10.53,0.132
		c-3.622,0.044-7.065,0.066-10.331,0.066c-3.268,0-5.874,0-7.814,0c-2.914,0-5.1-0.464-6.557-1.391
		c-1.457-0.928-2.098-2.937-1.92-6.026c0.176-6.534,0.286-13.687,0.331-21.457c0.043-7.77,0.066-15.894,0.066-24.371
		c0-3.795,0-7.881,0-12.251c0-4.371,0-8.63,0-12.781c0-4.149,0.021-8.08,0.066-11.788
		C129.912,197.203,130.021,194.024,130.199,191.375z"/>
	<path d="M180.795,240.779c-0.089-3.973,0-8.079,0.265-12.318c0.265-4.238,0.794-8.365,1.589-12.384
		c0.795-4.017,1.92-7.815,3.377-11.391c1.457-3.576,3.312-6.732,5.563-9.47c2.251-2.736,4.967-4.901,8.146-6.49
		s6.931-2.428,11.258-2.517c9.888-0.176,17.239,4.019,22.053,12.583c4.812,8.565,7.129,21.281,6.954,38.146
		c-0.089,10.066-0.751,18.675-1.987,25.828c-1.238,7.152-3.158,13.003-5.762,17.55c-2.605,4.547-5.894,7.857-9.868,9.934
		c-3.973,2.073-8.742,3.112-14.305,3.112c-5.563,0-10.089-1.701-13.576-5.099c-3.489-3.4-6.226-7.683-8.212-12.848
		c-1.987-5.166-3.377-10.839-4.172-17.021C181.325,252.215,180.882,246.342,180.795,240.779z M211.656,197.203
		c-3.002-0.087-5.563,0.665-7.682,2.256c-2.12,1.592-3.864,3.713-5.232,6.366c-1.37,2.653-2.43,5.639-3.179,8.955
		c-0.751,3.317-1.325,6.589-1.722,9.818c-0.397,3.229-0.619,6.233-0.662,9.019c-0.045,2.786-0.066,4.975-0.066,6.567
		c0.087,6.368,0.484,12.183,1.192,17.444c0.706,5.263,1.722,9.752,3.046,13.465c1.324,3.715,2.957,6.589,4.9,8.623
		c1.941,2.034,4.193,3.051,6.755,3.051c2.649,0,5.12-0.706,7.417-2.121c2.295-1.416,4.282-3.87,5.96-7.363
		c1.676-3.494,3.001-8.136,3.974-13.929c0.971-5.792,1.5-13.066,1.589-21.823c0-6.014-0.311-11.474-0.927-16.382
		c-0.619-4.909-1.589-9.108-2.914-12.602c-1.325-3.493-3.003-6.213-5.033-8.158C217.041,198.442,214.57,197.381,211.656,197.203z"/>
	<path d="M298.411,190.713c0.439-1.676,1.146-2.891,2.119-3.643c0.971-0.749,2.074-1.125,3.311-1.125
		c1.676,0,3.199,0.662,4.57,1.986c1.367,1.325,1.875,3.179,1.523,5.563c-1.238,6.447-2.738,13.665-4.504,21.656
		c-1.768,7.993-3.643,16.182-5.629,24.569c-1.986,8.39-4.063,16.755-6.225,25.099c-2.166,8.345-4.262,16.093-6.293,23.245
		c-0.441,1.59-1.258,2.825-2.449,3.709c-1.193,0.882-2.451,1.324-3.775,1.324c-2.207,0-3.93-1.281-5.166-3.841
		c-1.059-3.622-2.141-7.021-3.244-10.199c-1.105-3.179-2.099-6.269-2.98-9.271c-1.324-4.238-2.605-8.388-3.841-12.45
		c-1.238-4.06-2.517-8.255-3.842-12.583c-1.148-3.885-2.317-7.991-3.51-12.318c-1.191-4.325-2.363-8.675-3.51-13.046
		c-1.148-4.371-2.252-8.696-3.311-12.98c-1.06-4.282-1.987-8.411-2.782-12.384c-0.443-2.295,0.043-4.106,1.457-5.43
		c1.411-1.325,3.046-1.987,4.901-1.987c1.324,0,2.626,0.42,3.906,1.258c1.279,0.84,2.054,2.053,2.318,3.642
		c0.529,3.003,1.17,6.205,1.921,9.603c0.749,3.4,1.544,6.887,2.384,10.463c0.838,3.576,1.723,7.152,2.648,10.729
		c0.928,3.576,1.875,6.999,2.848,10.265c1.06,3.887,1.987,7.351,2.782,10.397s1.766,6.602,2.914,10.663
		c0.352,1.502,0.705,2.848,1.059,4.039c0.354,1.192,0.707,2.363,1.061,3.51c0.352,1.149,0.684,2.364,0.992,3.643
		c0.309,1.281,0.641,2.761,0.994,4.438c0.441-2.384,0.928-4.591,1.457-6.623c0.529-2.03,1.014-3.928,1.457-5.695
		c2.736-11.037,5.209-22.096,7.418-33.178C293.597,212.679,295.938,201.663,298.411,190.713z"/>
	<path d="M324.372,247.004c0-7.769,0-14.325,0-19.668c0-5.342-0.022-9.756-0.066-13.245c-0.045-3.487-0.089-6.225-0.132-8.212
		c-0.046-1.987-0.09-3.487-0.133-4.503c-0.046-1.014-0.066-1.699-0.066-2.053c0-0.352,0-0.706,0-1.06v-5.298
		c0-1.235,0.286-2.494,0.861-3.775c0.573-1.279,1.92-1.92,4.039-1.92h17.881c2.119,0,4.149-0.021,6.093-0.066
		c1.941-0.043,3.796-0.066,5.563-0.066c4.149,0,6.974,0.132,8.477,0.397c0.971,0.178,2.008,0.642,3.112,1.391
		c1.104,0.751,1.656,1.966,1.656,3.642c0,1.238-0.199,2.231-0.597,2.98c-0.397,0.751-0.927,1.324-1.589,1.722
		s-1.391,0.642-2.186,0.729c-0.795,0.089-1.59,0.132-2.385,0.132l-29.006-0.132c0.087,6.093,0.198,11.854,0.331,17.285
		c0.132,5.431,0.242,11.192,0.331,17.285c1.146,0,2.759,0.023,4.834,0.066c2.074,0.045,4.524,0.066,7.352,0.066
		c2.824,0,5.54,0.022,8.146,0.066c2.604,0.045,5.364-0.021,8.278-0.199c1.411-0.087,2.626,0.311,3.643,1.192
		c1.014,0.883,1.522,2.076,1.522,3.576c0,1.854-0.509,3.291-1.522,4.304c-1.017,1.016-2.407,1.569-4.173,1.656
		c-1.324,0.089-3.532,0.155-6.622,0.199c-3.092,0.045-6.226,0.066-9.404,0.066h-12.186c0,3.634,0.021,7.291,0.066,10.969
		c0.044,3.677,0.066,7.332,0.066,10.964v12.231c0,0.975,0.176,1.616,0.529,1.927c0.353,0.31,0.882,0.465,1.59,0.465h6.225
		c2.825,0,5.431,0.023,7.815,0.066c2.384,0.046,4.192,0.023,5.43-0.066l10.861-0.132c3.619,0,5.431,1.788,5.431,5.364
		c0,1.568-0.443,2.813-1.325,3.729c-0.883,0.912-2.251,1.415-4.105,1.502c-2.032,0.087-4.305,0.133-6.821,0.133s-4.658,0-6.424,0
		h-22.781c-3.622,0-5.96-0.928-7.02-2.782c-1.06-1.854-1.59-4.019-1.59-6.489V247.004z"/>
	<path d="M48.545,451.374c-1.502,0-2.871-0.464-4.106-1.389c-1.237-0.928-1.767-2.402-1.589-4.431v-37.306
		c-0.178-7.583-0.354-15.168-0.53-22.753c-0.178-7.582-0.354-15.167-0.53-22.752c0-0.704-0.023-2.026-0.066-3.968
		c-0.045-1.94-0.111-3.88-0.199-5.821c0.087-1.763,0.729-3.284,1.921-4.563c1.192-1.278,2.98-1.918,5.364-1.918h23.179
		c1.941,0,3.951,0,6.026,0c2.074,0,3.775,0.045,5.099,0.132c1.59,0.087,2.935,0.48,4.04,1.178c1.103,0.697,1.656,2.049,1.656,4.055
		c0,1.221-0.199,2.179-0.596,2.876c-0.397,0.698-0.907,1.222-1.523,1.569c-0.619,0.35-1.324,0.546-2.119,0.59
		c-0.794,0.043-1.589,0.063-2.384,0.063h-9.271c-3.003,0-5.807,0.023-8.411,0.066c-2.605,0.046-5.277,0.066-8.013,0.066
		c-1.149,0-1.834,0.311-2.053,0.928c-0.221,0.618-0.331,1.28-0.331,1.986c0,2.563,0.021,4.967,0.066,7.219
		c0.043,2.251,0.087,4.482,0.132,6.688c0.043,2.208,0.11,4.46,0.199,6.755c0.087,2.297,0.132,4.725,0.132,7.285
		c6.887,0,12.736,0,17.55,0c4.812,0,8.232,0.089,10.265,0.265c1.854,0.089,3.444,0.509,4.768,1.258
		c1.325,0.752,1.987,2.274,1.987,4.57c0,2.032-0.596,3.399-1.788,4.105c-1.192,0.708-2.671,0.973-4.437,0.795
		c-0.53-0.087-1.37-0.153-2.517-0.199c-1.148-0.043-2.473-0.087-3.973-0.132c-1.503-0.044-3.158-0.066-4.967-0.066
		c-1.811,0-3.642,0-5.497,0c-2.119,0-4.172-0.021-6.159-0.066c-1.987-0.043-3.688,0.022-5.1,0.199c0,7.152,0.043,14.459,0.133,21.92
		c0.087,7.463,0.132,14.769,0.132,21.921c0,1.589-0.045,2.868-0.132,3.841c-0.089,0.971-0.486,1.897-1.192,2.781
		C52.386,450.623,50.664,451.374,48.545,451.374z"/>
	<path d="M104.571,449.652c-1.943,0-3.245-0.51-3.907-1.523c-0.662-1.017-0.994-2.099-0.994-3.245c0-1.237,0.332-2.384,0.994-3.443
		s2.007-1.59,4.04-1.59h8.212c0-3.795,0-7.703,0-11.722c0-4.017,0.043-8.014,0.133-11.986c0-1.766,0-3.885,0-6.358
		c0-2.471,0.021-5.01,0.066-7.615c0.043-2.604,0.066-5.143,0.066-7.616c0-2.471,0-4.59,0-6.357c0-5.563-0.023-10.815-0.066-15.762
		c-0.045-4.944-0.155-10.153-0.331-15.629c-1.238,0-2.473-0.021-3.708-0.066c-1.238-0.043-2.473-0.021-3.708,0.066
		c-1.854,0.089-3.291-0.418-4.305-1.523c-1.016-1.103-1.523-2.272-1.523-3.51c0-1.235,0.507-2.405,1.523-3.51
		c1.014-1.104,2.537-1.699,4.569-1.788c2.471,0,4.901,0.022,7.285,0.066c2.384,0.045,4.769,0.065,7.152,0.065l14.437-0.132
		c1.676,0,2.914,0.559,3.708,1.676c0.795,1.118,1.192,2.348,1.192,3.688c0,1.343-0.397,2.552-1.192,3.624
		c-0.794,1.071-2.076,1.607-3.841,1.607h-9.271v82.649h8.609c1.676,0,2.98,0.529,3.907,1.589s1.391,2.252,1.391,3.576
		c0,1.146-0.443,2.229-1.325,3.245c-0.883,1.014-2.208,1.523-3.973,1.523H104.571z"/>
	<path d="M151.193,358.394c-2.562,0.09-4.417-0.483-5.563-1.722c-1.148-1.235-1.722-2.604-1.722-4.105
		c0-1.325,0.507-2.517,1.523-3.576c1.014-1.06,2.405-1.633,4.172-1.722c3.973-0.177,8.189-0.266,12.649-0.266
		c4.458,0,8.808,0,13.046,0c3.795,0,7.527,0.023,11.192,0.066c3.663,0.046,7.218,0.112,10.662,0.199
		c1.676,0.089,3.001,0.685,3.974,1.788c0.971,1.104,1.457,2.274,1.457,3.51c0,1.324-0.486,2.539-1.457,3.643
		c-0.973,1.104-2.43,1.655-4.371,1.655h-19.073c0.087,6.888,0.199,13.953,0.331,21.192c0.133,7.241,0.286,14.085,0.464,20.529
		c0.087,1.503,0.132,3.356,0.132,5.563c0,2.209,0,4.02,0,5.431c0,3.887-0.045,7.881-0.132,11.987
		c-0.089,4.105-0.178,8.059-0.265,11.854c-0.089,2.119-0.132,4.305-0.132,6.557s-0.045,4.524-0.132,6.821
		c-0.089,1.854-0.751,3.266-1.987,4.238c-1.238,0.971-2.605,1.457-4.106,1.457c-1.502,0-2.871-0.464-4.106-1.391
		c-1.238-0.928-1.9-2.274-1.987-4.04c-0.089-2.208-0.089-4.437,0-6.688c0.087-2.252,0.176-4.438,0.265-6.557
		c0.087-3.53,0.176-7.483,0.265-11.854c0.087-4.37,0.132-8.364,0.132-11.986c0-1.589,0-3.266,0-5.033
		c0-1.766-0.045-4.017-0.132-6.755c-0.178-6.622-0.376-13.464-0.596-20.529c-0.221-7.063-0.331-13.907-0.331-20.53
		c-2.738,0.089-5.277,0.133-7.616,0.133C155.409,358.262,153.224,358.307,151.193,358.394z"/>
	<path d="M212.121,351.771c-0.089-1.941,0.331-3.421,1.258-4.438c0.927-1.014,2.14-1.522,3.642-1.522
		c0.971,0,1.941,0.265,2.914,0.794c0.971,0.53,1.722,1.281,2.251,2.252c1.146,2.119,2.252,4.151,3.312,6.093
		c1.06,1.943,2.073,3.93,3.046,5.96c5.563,10.421,10.97,20.752,16.225,30.994c5.252,10.244,10.351,20.618,15.298,31.125v-52.317
		c0-4.149,0-7.858,0-11.126c0-3.266-0.046-6.004-0.133-8.212c0.176-1.854,0.815-3.312,1.92-4.371
		c1.104-1.06,2.405-1.589,3.908-1.589c1.411,0,2.824,0.509,4.238,1.523c1.411,1.016,2.118,2.628,2.118,4.834
		c0,0.795-0.021,1.986-0.065,3.576c-0.046,1.589-0.066,3.245-0.066,4.967s-0.022,3.356-0.066,4.9
		c-0.046,1.546-0.065,2.672-0.065,3.378v31.258c0,6.093,0.02,12.805,0.065,20.133c0.044,7.33,0.066,15.409,0.066,24.238
		c0,1.06-0.066,2.097-0.198,3.112c-0.133,1.015-0.377,1.964-0.729,2.848c-0.354,0.882-0.883,1.59-1.589,2.119
		c-0.708,0.53-1.635,0.795-2.781,0.795c-1.503,0-2.782-0.486-3.841-1.457c-1.061-0.973-1.987-2.341-2.781-4.105
		c-1.503-3.092-3.136-6.468-4.901-10.133c-1.767-3.663-3.576-7.351-5.43-11.06c-1.768-3.53-3.576-7.106-5.431-10.729
		c-1.854-3.619-3.797-7.328-5.828-11.126c-2.562-5.033-5.033-9.669-7.417-13.907c-2.384-4.238-4.636-8.874-6.755-13.907
		c0.087,1.854,0.176,3.931,0.265,6.226c0.087,2.297,0.176,4.592,0.265,6.887c0.087,2.298,0.176,4.504,0.265,6.623
		c0.087,2.119,0.132,3.974,0.132,5.563c0.176,4.769,0.331,9.029,0.463,12.781c0.133,3.755,0.242,7.331,0.332,10.729
		c0.087,3.4,0.176,6.821,0.265,10.266c0.087,3.443,0.132,7.284,0.132,11.522c0,2.03-0.685,3.531-2.053,4.504
		c-1.37,0.971-2.804,1.457-4.305,1.457c-1.502,0-2.827-0.51-3.974-1.523c-1.148-1.017-1.722-2.496-1.722-4.438v-13.377
		c-0.089-5.474-0.132-11.259-0.132-17.352c0-6.092-0.222-12.582-0.663-19.47c-0.265-7.593-0.463-15.076-0.596-22.45
		C212.849,367.247,212.562,359.632,212.121,351.771z"/>
	<path d="M290.795,405.943c0-7.769,0-14.325,0-19.669c0-5.341-0.022-9.756-0.066-13.245c-0.045-3.486-0.089-6.225-0.132-8.212
		c-0.046-1.986-0.09-3.486-0.133-4.503c-0.046-1.014-0.066-1.699-0.066-2.053c0-0.352,0-0.706,0-1.06v-5.298
		c0-1.236,0.286-2.494,0.861-3.775c0.573-1.278,1.92-1.92,4.039-1.92h17.881c2.119,0,4.149-0.021,6.093-0.066
		c1.941-0.044,3.796-0.066,5.563-0.066c4.149,0,6.974,0.133,8.477,0.397c0.971,0.178,2.008,0.642,3.112,1.391
		c1.104,0.751,1.656,1.966,1.656,3.643c0,1.237-0.199,2.23-0.597,2.979c-0.397,0.752-0.927,1.325-1.589,1.723
		c-0.662,0.396-1.391,0.641-2.186,0.728c-0.795,0.09-1.59,0.133-2.385,0.133l-29.006-0.133c0.087,6.093,0.198,11.854,0.331,17.285
		c0.132,5.431,0.242,11.192,0.331,17.285c1.146,0,2.759,0.022,4.834,0.065c2.074,0.046,4.524,0.066,7.352,0.066
		c2.824,0,5.54,0.023,8.146,0.066c2.604,0.046,5.364-0.021,8.278-0.198c1.411-0.087,2.626,0.311,3.643,1.191
		c1.014,0.884,1.522,2.076,1.522,3.576c0,1.854-0.509,3.291-1.522,4.305c-1.017,1.017-2.407,1.569-4.173,1.656
		c-1.324,0.089-3.532,0.155-6.622,0.198c-3.092,0.046-6.226,0.066-9.404,0.066h-12.186c0,3.634,0.021,7.291,0.066,10.969
		c0.044,3.677,0.066,7.332,0.066,10.964v12.231c0,0.975,0.176,1.616,0.529,1.927c0.353,0.31,0.882,0.465,1.59,0.465h6.225
		c2.825,0,5.431,0.023,7.815,0.066c2.384,0.046,4.192,0.023,5.43-0.066l10.861-0.132c3.619,0,5.431,1.788,5.431,5.364
		c0,1.568-0.443,2.813-1.325,3.729c-0.883,0.912-2.251,1.415-4.105,1.502c-2.032,0.087-4.305,0.133-6.821,0.133s-4.658,0-6.424,0
		h-22.781c-3.622,0-5.96-0.928-7.02-2.782c-1.06-1.854-1.59-4.019-1.59-6.489V405.943z"/>
	<path d="M398.478,362.235c0.352,2.032-0.199,3.708-1.656,5.033c-1.457,1.324-3.025,1.986-4.701,1.986
		c-1.238,0-2.364-0.331-3.378-0.993c-1.016-0.662-1.655-1.743-1.921-3.245c-0.529-2.825-1.701-4.987-3.51-6.49
		c-1.811-1.5-4.129-2.295-6.953-2.384c-4.682-0.087-8.036,0.993-10.066,3.245c-2.032,2.251-3.047,4.834-3.047,7.748
		c0,3.356,1.259,6.844,3.775,10.464c2.517,3.621,6.424,7.946,11.722,12.979c4.325,4.151,7.947,7.86,10.861,11.126
		c2.913,3.268,5.252,6.357,7.02,9.271c1.766,2.914,3.001,5.762,3.709,8.543c0.705,2.781,1.06,5.762,1.06,8.94
		c0,4.151-0.752,7.771-2.252,10.861c-1.503,3.092-3.51,5.649-6.026,7.682c-2.517,2.03-5.41,3.576-8.676,4.636
		c-3.268,1.06-6.755,1.59-10.464,1.59c-3.621,0-7.02-0.575-10.198-1.722c-3.179-1.149-5.96-2.738-8.345-4.769
		c-2.384-2.032-4.238-4.438-5.563-7.219s-1.986-5.762-1.986-8.94c-0.09-1.854,0.507-3.312,1.788-4.371
		c1.278-1.06,2.669-1.589,4.172-1.589c1.5,0,2.848,0.42,4.04,1.258c1.191,0.841,1.875,2.143,2.053,3.907
		c0.176,3.974,1.522,7.021,4.039,9.14s5.849,3.179,10,3.179c4.855,0,8.587-1.235,11.192-3.709c2.604-2.471,3.907-5.871,3.907-10.198
		c0-2.649-0.397-5.1-1.192-7.352c-0.794-2.251-1.986-4.503-3.576-6.755c-1.589-2.251-3.555-4.569-5.894-6.953
		c-2.341-2.384-5.056-5.12-8.146-8.212c-3.179-3.179-6.05-6.137-8.609-8.874c-2.563-2.736-4.702-5.385-6.424-7.947
		c-1.722-2.56-3.047-5.076-3.974-7.55c-0.927-2.471-1.391-4.987-1.391-7.55c0-2.735,0.464-5.43,1.391-8.079s2.428-5.011,4.503-7.086
		c2.074-2.074,4.723-3.752,7.947-5.033c3.223-1.279,7.173-1.921,11.854-1.921c5.828,0,10.795,1.348,14.9,4.04
		C394.57,351.618,397.239,356.056,398.478,362.235z"/>
	<path d="M460.597,362.235c0.352,2.032-0.199,3.708-1.656,5.033c-1.457,1.324-3.025,1.986-4.701,1.986
		c-1.238,0-2.364-0.331-3.378-0.993c-1.016-0.662-1.655-1.743-1.921-3.245c-0.529-2.825-1.701-4.987-3.51-6.49
		c-1.811-1.5-4.129-2.295-6.953-2.384c-4.682-0.087-8.036,0.993-10.066,3.245c-2.032,2.251-3.047,4.834-3.047,7.748
		c0,3.356,1.259,6.844,3.775,10.464c2.517,3.621,6.424,7.946,11.722,12.979c4.325,4.151,7.947,7.86,10.861,11.126
		c2.913,3.268,5.252,6.357,7.02,9.271c1.766,2.914,3.001,5.762,3.709,8.543c0.705,2.781,1.06,5.762,1.06,8.94
		c0,4.151-0.752,7.771-2.252,10.861c-1.503,3.092-3.51,5.649-6.026,7.682c-2.517,2.03-5.41,3.576-8.676,4.636
		c-3.268,1.06-6.755,1.59-10.464,1.59c-3.621,0-7.02-0.575-10.198-1.722c-3.179-1.149-5.96-2.738-8.345-4.769
		c-2.384-2.032-4.238-4.438-5.563-7.219s-1.986-5.762-1.986-8.94c-0.09-1.854,0.507-3.312,1.788-4.371
		c1.278-1.06,2.669-1.589,4.172-1.589c1.5,0,2.848,0.42,4.04,1.258c1.191,0.841,1.875,2.143,2.053,3.907
		c0.176,3.974,1.522,7.021,4.039,9.14s5.849,3.179,10,3.179c4.855,0,8.587-1.235,11.192-3.709c2.604-2.471,3.907-5.871,3.907-10.198
		c0-2.649-0.397-5.1-1.192-7.352c-0.794-2.251-1.986-4.503-3.576-6.755c-1.589-2.251-3.555-4.569-5.894-6.953
		c-2.341-2.384-5.056-5.12-8.146-8.212c-3.179-3.179-6.05-6.137-8.609-8.874c-2.563-2.736-4.702-5.385-6.424-7.947
		c-1.722-2.56-3.047-5.076-3.974-7.55c-0.927-2.471-1.391-4.987-1.391-7.55c0-2.735,0.464-5.43,1.391-8.079s2.428-5.011,4.503-7.086
		c2.074-2.074,4.723-3.752,7.947-5.033c3.223-1.279,7.173-1.921,11.854-1.921c5.828,0,10.795,1.348,14.9,4.04
		C456.689,351.618,459.358,356.056,460.597,362.235z"/>
</g>
</svg>
